# xmcd CD database file
#
# Track frame offsets:
#	150
#	21983
#	40665
#	58842
#	81807
#	110885
#	133168
#	153457
#	172341
#	186719
#	206516
#	225604
#	239543
#	256558
#	272780
#	296311
#
# Disc length: 4285 seconds
#
# Revision: 0
# Processed by: cddbd v1.4PL0 Copyright (c) Steve Scherf et al.
# Submitted via: CDex 1.50beta10
#
DISCID=f010bb10
DTITLE=John Tesh - Live At Red Rocks   Disc 1
DYEAR=1900
DGENRE=New Age
TTITLE0=Dat One
TTITLE1=Garden City
TTITLE2=Key Of Love
TTITLE3=Barcelona
TTITLE4=April Song
TTITLE5=Shock
TTITLE6=A Thousand Summers
TTITLE7=Fields Of Gold
TTITLE8=Against All Odds
TTITLE9=Bastille Day
TTITLE10=On American Shores
TTITLE11=Concetta
TTITLE12=In A Child's Eyes
TTITLE13=Group Five
TTITLE14=Road Made For Animals
TTITLE15=Ps 491
EXTD=
EXTT0=
EXTT1=
EXTT2=
EXTT3=
EXTT4=
EXTT5=
EXTT6=
EXTT7=
EXTT8=
EXTT9=
EXTT10=
EXTT11=
EXTT12=
EXTT13=
EXTT14=
EXTT15=
PLAYORDER=
